<?xml version="1.0" encoding="UTF-8" standalone="no"?>
<!-- Created with Inkscape (http://www.inkscape.org/) -->

<svg
   width="542.61865mm"
   height="311.30936mm"
   viewBox="0 0 542.61865 311.30936"
   version="1.1"
   id="svg835"
   inkscape:version="1.1 (c68e22c387, 2021-05-23)"
   sodipodi:docname="fondo_banner.svg"
   inkscape:export-filename="D:\FERNANDO\Desarrollo\ReMicos-www\src\assets\img\fondo_banner.png"
   inkscape:export-xdpi="22.725401"
   inkscape:export-ydpi="22.725401"
   xmlns:inkscape="http://www.inkscape.org/namespaces/inkscape"
   xmlns:sodipodi="http://sodipodi.sourceforge.net/DTD/sodipodi-0.dtd"
   xmlns="http://www.w3.org/2000/svg"
   xmlns:svg="http://www.w3.org/2000/svg">
  <sodipodi:namedview
     id="namedview837"
     pagecolor="#ffffff"
     bordercolor="#111111"
     borderopacity="1"
     inkscape:pageshadow="0"
     inkscape:pageopacity="0"
     inkscape:pagecheckerboard="1"
     inkscape:document-units="mm"
     showgrid="false"
     inkscape:zoom="0.22627417"
     inkscape:cx="1204.2912"
     inkscape:cy="521.49125"
     inkscape:window-width="1366"
     inkscape:window-height="697"
     inkscape:window-x="-8"
     inkscape:window-y="-8"
     inkscape:window-maximized="1"
     inkscape:current-layer="layer1" />
  <defs
     id="defs832" />
  <g
     inkscape:label="Capa 1"
     inkscape:groupmode="layer"
     id="layer1"
     transform="translate(543.29947,2.5854389)">
    <path
       style="fill:#e6e6e6;fill-opacity:1;stroke:#a4a4a4;stroke-width:0.262685px;stroke-linecap:butt;stroke-linejoin:miter;stroke-opacity:1"
       d="M -178.1994,305.55222 H -543.16813 V 0.41319307 h 417.03599 l 9.1516,14.43411393 0.46597,183.443623 -42.5511,38.29537 -8.28176,55.45424 z"
       id="path2498"
       sodipodi:nodetypes="ccccccccc" />
    <path
       style="fill:#a4a4a4;fill-opacity:1;stroke-width:0.264583"
       d="m -112.68418,307.79867 c -1.0186,-0.47739 -1.9711,-0.97097 -2.1167,-1.09686 -0.1455,-0.12589 -0.6997,-0.55819 -1.2315,-0.96068 -1.3369,-1.01174 -2.4012,-3.30969 -2.4414,-5.27147 -0.017,-0.83672 -0.1205,-1.52133 -0.2297,-1.52136 -0.1091,0 -0.1984,0.10679 -0.1984,0.23736 0,0.2177 -0.598,0.98327 -1.9899,2.54767 -0.9099,1.02272 -3.4979,2.17747 -7.4028,3.30319 -1.6358,0.4716 -7.3982,0.63445 -9.9343,0.2808 -1.2301,-0.17155 -4.4392,-0.48135 -7.1313,-0.68847 -5.2642,-0.405 -11.0927,-0.23762 -19.1823,0.55084 -2.1828,0.21275 -6.4099,0.386 -9.3936,0.38499 -5.8574,-0.003 -7.2659,-0.22979 -10.4592,-1.69172 -1.9701,-0.90191 -4.222,-3.1778 -4.6249,-4.67399 -0.3717,-1.38039 -0.1319,-3.71229 0.5,-4.86233 1.0692,-1.94575 2.7267,-4.34599 3.1001,-4.48926 0.2232,-0.0857 0.3435,-0.25676 0.2672,-0.38016 -0.076,-0.1234 0.2139,-0.48501 0.6447,-0.80354 0.4309,-0.31853 0.7834,-0.66529 0.7834,-0.77057 0,-0.10525 1.3692,-1.58107 3.0427,-3.27956 1.6735,-1.6985 3.0427,-3.15661 3.0427,-3.24028 0,-0.0836 0.2351,-0.38719 0.5224,-0.67452 0.5195,-0.51946 0.9786,-1.76896 0.7382,-2.00928 -0.069,-0.0692 -0.8871,0.0537 -1.8177,0.273 -2.0341,0.47948 -3.0229,0.4922 -4.0542,0.0521 l -0.7748,-0.33062 0.6335,-0.59018 c 0.3484,-0.32459 1.1733,-0.75594 1.8331,-0.95859 1.2355,-0.37938 4.0076,-1.66433 4.2424,-1.96643 0.073,-0.0936 0.6681,-0.51353 1.3229,-0.93311 0.6549,-0.41957 1.3692,-0.9171 1.5875,-1.10561 0.8052,-0.69538 3.9688,-3.85424 3.9688,-3.96283 0,-0.0617 0.3572,-0.4536 0.7937,-0.87082 0.4366,-0.41719 0.7938,-0.89447 0.7938,-1.06063 0,-0.16614 0.119,-0.30208 0.2646,-0.30208 0.1455,0 0.2645,-0.13168 0.2645,-0.29265 0,-0.16095 0.3411,-0.7265 0.758,-1.25677 0.7458,-0.94872 2.5084,-4.27141 2.2659,-4.27141 -0.068,0 0.1188,-0.47625 0.4157,-1.05833 0.297,-0.58209 0.4797,-1.05834 0.4061,-1.05834 -0.074,0 0.096,-0.58232 0.3763,-1.29405 0.2805,-0.71174 0.4548,-1.34937 0.3872,-1.41697 -0.068,-0.0676 0.057,-0.88425 0.2759,-1.81479 0.4619,-1.95969 0.5174,-5.39698 0.1148,-7.11585 -0.1533,-0.65485 -0.308,-1.42875 -0.3436,-1.7198 -0.1234,-1.00764 -0.7154,-2.65333 -1.5595,-4.33502 -0.7938,-1.58162 -0.9573,-1.73917 -2.5676,-2.47385 -0.9459,-0.43156 -1.8388,-0.8071 -1.9844,-0.83452 -0.4654,-0.0877 -3.6886,-1.7859 -4.1225,-2.17197 -0.2301,-0.20474 -0.498,-0.29261 -0.5953,-0.19528 -0.097,0.0973 -0.177,0.0381 -0.177,-0.13172 0,-0.16977 -0.1083,-0.30868 -0.2408,-0.30868 -0.3784,0 -2.405,-1.39045 -2.405,-1.65011 0,-0.12826 -0.1199,-0.1591 -0.2664,-0.0685 -0.1466,0.0906 -0.3379,-0.0215 -0.4252,-0.24897 -0.087,-0.22751 -0.2505,-0.41365 -0.3627,-0.41365 -0.3129,0 -3.7355,-3.37823 -5.227,-5.15937 -1.5632,-1.86671 -2.5307,-3.40818 -4.0687,-6.48229 -0.6189,-1.23693 -1.2222,-2.28865 -1.3407,-2.33716 -0.1186,-0.0485 -0.2155,-0.31079 -0.2155,-0.58286 0,-0.27207 -0.1041,-0.76816 -0.2313,-1.10243 -0.5088,-1.33726 -1.14,-3.39353 -1.218,-3.9681 -0.046,-0.33462 -0.2321,-1.26326 -0.4147,-2.06362 -0.3495,-1.53183 -0.3947,-2.10535 -0.4704,-5.96614 l -0.047,-2.39427 -0.9104,0.10629 c -0.5008,0.0585 -1.8997,-0.0992 -3.1089,-0.35042 -1.2091,-0.25119 -2.4365,-0.4878 -2.7276,-0.52579 -0.5005,-0.0653 -1.5529,-0.32836 -3.9687,-0.9918 -0.5821,-0.15985 -1.2369,-0.42345 -1.4552,-0.58578 -0.2183,-0.16231 -0.7541,-0.46839 -1.1906,-0.68016 -0.4366,-0.21178 -0.8813,-0.5043 -0.9882,-0.65005 -0.1208,-0.16474 -0.1959,-0.16766 -0.1984,-0.008 0,0.14152 -0.1894,-0.007 -0.4159,-0.33073 -0.2266,-0.32342 -0.571,-0.58803 -0.7655,-0.58803 -0.1944,0 -0.4221,-0.1786 -0.5058,-0.39688 -0.084,-0.21828 -0.3247,-0.39687 -0.5355,-0.39687 -0.2107,0 -0.4228,-0.11217 -0.4713,-0.24927 -0.048,-0.13709 -0.9322,-1.11936 -1.9637,-2.18281 -1.0315,-1.06345 -2.1003,-2.29074 -2.3751,-2.7273 -0.2748,-0.43656 -0.5621,-0.85328 -0.6385,-0.92604 -0.076,-0.0728 -0.3121,-0.48948 -0.5239,-0.92604 -0.2117,-0.43656 -0.5147,-0.97235 -0.6732,-1.19063 -0.5128,-0.706 -2.4395,-5.52598 -2.6441,-6.61458 -0.068,-0.3638 -0.2037,-1.01865 -0.3007,-1.45521 -0.3926,-1.76616 -0.427,-2.28567 -0.4295,-6.48229 0,-4.12969 0.092,-5.441 0.4818,-6.66848 0.092,-0.29037 0.2025,-0.78399 0.2452,-1.09692 0.043,-0.31294 0.2643,-1.07665 0.4925,-1.69714 0.2282,-0.62049 0.4073,-1.19114 0.398,-1.26812 -0.02,-0.16568 0.4717,-1.49103 0.9993,-2.69308 0.925,-2.10724 1.3203,-2.90075 1.8145,-3.64189 0.2911,-0.43656 0.4797,-0.79375 0.419,-0.79375 -0.061,0 0.2111,-0.50881 0.6036,-1.1307 0.3926,-0.62189 0.9112,-1.54462 1.1524,-2.05052 0.2413,-0.5059 0.5084,-0.91982 0.5936,-0.91982 0.085,0 0.4477,-0.53578 0.8054,-1.19062 0.3577,-0.65485 0.7422,-1.19063 0.8544,-1.19063 0.1122,0 0.2039,-0.15231 0.2039,-0.33846 0,-0.18616 0.2382,-0.5101 0.5292,-0.71987 0.291,-0.20977 0.5292,-0.52379 0.5292,-0.69782 0,-0.17403 0.09,-0.3561 0.199,-0.40461 0.1095,-0.0485 0.8482,-0.92163 1.6416,-1.94028 1.8478,-2.37239 1.8334,-2.35485 2.8884,-3.51576 0.4909,-0.54018 1.2053,-1.39077 1.5875,-1.8902 0.6,-0.784 1.93,-2.27669 3.3361,-3.74436 0.2209,-0.23049 0.4015,-0.49838 0.4015,-0.59531 0,-0.0969 0.2084,-0.39396 0.4631,-0.66006 0.8498,-0.88802 1.6536,-1.89946 1.6536,-2.08083 0,-0.0987 0.2272,-0.42517 0.5048,-0.72559 0.5739,-0.62088 2.6522,-4.66051 2.8044,-5.45083 0.055,-0.28674 0.1805,-0.65105 0.2785,-0.80958 0.098,-0.15853 0.1717,-0.7534 0.1639,-1.32192 -0.01,-0.56853 0.081,-1.03368 0.1982,-1.03368 0.1169,0 0.1254,-0.47625 0.019,-1.05834 -0.1064,-0.58208 -0.1202,-1.06015 -0.031,-1.06238 0.09,-0.002 0.037,-0.0915 -0.116,-0.19844 -0.3647,-0.25422 -1.4409,-2.35742 -1.4409,-2.81597 0,-0.19598 -0.1706,-0.49791 -0.3791,-0.67096 -0.2085,-0.17304 -0.3699,-0.51504 -0.3588,-0.76 0.04,-0.87231 -1.6663,-3.99835 -2.7959,-5.12296 -1.1791,-1.17393 -4.2055,-2.97299 -4.5022,-2.67634 -0.091,0.0913 -0.166,0.007 -0.166,-0.1867 0,-0.19402 -0.075,-0.27759 -0.1671,-0.18569 -0.092,0.0919 -0.3732,0.0568 -0.625,-0.078 -0.2519,-0.13479 -0.8613,-0.31402 -1.3543,-0.39829 -0.493,-0.0843 -1.3131,-0.26679 -1.8224,-0.40559 -1.1705,-0.31901 -4.8263,-0.3188 -6.2177,2.6e-4 -0.5821,0.13351 -1.356,0.29766 -1.7198,0.36477 -1.3953,0.25739 -2.1167,0.50374 -2.1167,0.72284 0,0.12518 -0.1639,0.16468 -0.3643,0.0878 -0.4175,-0.16024 -4.0181,1.65863 -5.2753,2.66492 -0.4635,0.37105 -0.9617,0.77052 -1.1072,0.88782 -0.8574,0.6911 -3.2738,3.58775 -3.1542,3.78117 0.078,0.12701 0.024,0.23092 -0.1207,0.23092 -0.1448,0 -0.8088,1.10133 -1.4754,2.4474 -1.6072,3.24522 -1.6755,3.34748 -3.0549,4.56849 -1.7524,1.55112 -2.5635,1.90316 -4.5081,1.95667 -3.7106,0.1021 -6.3399,-2.14143 -6.3399,-5.40971 0,-4.64172 4.7608,-12.29915 9.7896,-15.74603 0.5093,-0.3491 1.158,-0.84737 1.4415,-1.10727 0.8969,-0.82228 8.4804,-4.337732 8.4804,-3.93122 0,0.0335 0.3327,-0.0656 0.7394,-0.22017 1.5119,-0.574822 5.9552,-1.382352 8.3887,-1.524582 1.8204,-0.10641 3.1702,-0.0198 4.8948,0.31404 1.3097,0.25353 2.6194,0.49271 2.9104,0.53151 0.2911,0.0388 1.065,0.2166 1.7198,0.39509 0.6549,0.17849 1.3097,0.347012 1.4552,0.374482 0.6021,0.11368 2.4671,0.74893 3.7042,1.2617 0.7276,0.30161 1.561,0.64048 1.8521,0.75305 1.449,0.56047 4.6395,2.25469 5.7553,3.05624 0.6915,0.49677 1.3464,0.90648 1.4552,0.91047 0.1088,0.004 1.0312,0.837 2.0499,1.85115 1.0186,1.01416 1.9414,1.84434 2.0505,1.84485 0.1092,5.3e-4 0.1984,0.17533 0.1984,0.38849 0,0.21316 0.2415,0.51679 0.5366,0.67473 0.2951,0.15795 0.476,0.38528 0.4019,0.50519 -0.074,0.11991 0.1606,0.53679 0.5217,0.9264 0.3611,0.38961 0.6565,0.81166 0.6565,0.93789 0,0.12623 0.1676,0.56658 0.3724,0.97855 1.3628,2.7411 1.7628,4.82083 1.7298,8.99425 -0.016,2.01358 -0.1401,4.25287 -0.276,4.97622 -0.1359,0.72334 -0.3029,1.73537 -0.3712,2.24895 -0.2221,1.67264 -1.6344,5.64836 -2.7754,7.81296 -0.6137,1.16417 -1.1934,2.1762 -1.2882,2.24896 -0.095,0.0728 -0.527,0.60854 -0.9603,1.19062 -1.3259,1.78125 -1.5603,2.05641 -2.4504,2.87675 -0.4729,0.43587 -0.8599,0.89755 -0.8599,1.02594 0,0.1284 -0.7412,0.91016 -1.6471,1.73726 -4.0572,3.70412 -9.5152,9.36796 -11.0105,11.42568 -0.8988,1.23693 -1.75,2.39034 -1.8916,2.56313 -0.5092,0.62159 -2.4192,4.95017 -2.5466,5.77124 -0.023,0.14553 -0.064,0.32412 -0.092,0.39688 -0.4838,1.26082 -0.6614,6.18134 -0.2839,7.86787 0.1807,0.80761 0.359,1.71921 0.3961,2.02578 0.1238,1.0219 0.7582,2.93339 1.1138,3.35635 0.1932,0.22974 0.3512,0.56191 0.3512,0.73814 0,0.48406 0.9401,2.20731 1.5645,2.86798 0.3037,0.32134 0.5522,0.63865 0.5522,0.70513 0,0.13261 0.945,1.29175 1.6139,1.97955 0.6987,0.71846 1.5518,1.36128 1.8067,1.36128 0.1317,0 0.2792,0.0893 0.3277,0.19844 0.1499,0.33725 1.7667,1.38906 2.1352,1.38906 0.1918,0 0.5836,0.16138 0.8707,0.35861 1.6824,1.15608 4.6907,1.62824 5.6304,0.88372 0.4225,-0.3348 1.1042,-1.91893 1.2159,-2.82562 0.1257,-1.0201 0.846,-2.97124 1.5866,-4.29777 0.367,-0.65735 0.5925,-1.2699 0.5012,-1.36122 -0.091,-0.0913 -0.041,-0.16605 0.1125,-0.16605 0.1531,0 0.7906,-0.8632 1.4165,-1.91823 0.6259,-1.05503 1.2646,-2.05588 1.4192,-2.22411 0.1547,-0.16824 0.982,-1.09097 1.8385,-2.05052 0.8565,-0.95955 1.7267,-1.74464 1.9338,-1.74464 0.2071,0 0.303,-0.11906 0.2131,-0.26458 -0.09,-0.14552 0.022,-0.26459 0.249,-0.26459 0.2268,0 0.4124,-0.11906 0.4124,-0.26458 0,-0.14552 0.1659,-0.26458 0.3686,-0.26458 0.2027,0 0.4371,-0.1786 0.5209,-0.39688 0.084,-0.21828 0.2791,-0.39687 0.4341,-0.39687 0.155,0 0.6064,-0.32743 1.0032,-0.72761 0.3968,-0.40018 1.0674,-0.9062 1.4903,-1.12448 0.4229,-0.21828 1.4337,-1.02476 2.2462,-1.79217 1.4535,-1.37272 1.4776,-1.41981 1.49,-2.91042 0.01,-0.83331 -0.1261,-2.28902 -0.2956,-3.23491 -0.3847,-2.14621 -0.3779,-2.03768 -0.3969,-6.39065 -0.024,-5.44391 0.952,-8.31343 3.5833,-10.53878 0.4327,-0.36595 1.028,-0.90348 1.3229,-1.19453 0.2949,-0.29104 0.6288,-0.49829 0.742,-0.46056 0.1132,0.0377 0.2747,-0.1111 0.359,-0.33073 0.084,-0.21963 0.2646,-0.39933 0.4007,-0.39933 0.2465,0 0.6179,-0.26498 1.5449,-1.10243 0.2685,-0.24253 0.5338,-0.39536 0.5895,-0.33961 0.056,0.0558 0.5717,-0.30908 1.1466,-0.81072 0.5748,-0.50165 1.1442,-0.91437 1.2652,-0.91717 0.3738,-0.009 2.9806,-2.15355 5.3118,-4.3707 4.0387,-3.84097 7.4684,-6.74687 7.9631,-6.74687 0.1937,0 0.9248,-0.69447 0.9248,-0.87846 0,-0.11088 -0.812,-0.363 -1.8521,-0.57501 -1.4991,-0.3056 -8.4705,-3.06591 -9.1942,-3.64044 -0.1819,-0.1444 -0.3308,-0.19834 -0.3308,-0.11987 0,0.0785 -0.4636,-0.1153 -1.0302,-0.43062 -2.8334,-1.57674 -4.7638,-2.71313 -5.7643,-3.3933 -0.6083,-0.41353 -1.2334,-0.75188 -1.3891,-0.75188 -0.1556,0 -0.283,-0.11907 -0.283,-0.26459 0,-0.14552 -0.1523,-0.26458 -0.3385,-0.26458 -0.1861,0 -0.5101,-0.23812 -0.7199,-0.52917 -0.2097,-0.29104 -0.5209,-0.52916 -0.6915,-0.52916 -0.1706,0 -0.3787,-0.1786 -0.4625,-0.39688 -0.084,-0.21828 -0.2636,-0.39687 -0.3997,-0.39687 -0.9695,0 -7.6936,-6.88287 -10.0805,-10.31875 -0.3539,-0.50933 -0.7682,-1.01352 -0.9207,-1.12043 -0.1526,-0.10691 -0.1673,-0.19621 -0.033,-0.19844 0.1345,-0.002 -1e-4,-0.27194 -0.2992,-0.59936 -0.7178,-0.78586 -4.1584,-7.965882 -4.0818,-8.518062 0.011,-0.0771 -0.2061,-0.66662 -0.4819,-1.30998 -0.2758,-0.64336 -0.4495,-1.22163 -0.3861,-1.28505 0.063,-0.0634 -0.072,-0.63989 -0.3007,-1.28106 -0.2288,-0.64116 -0.4705,-1.58247 -0.5371,-2.09179 -0.067,-0.50932 -0.1749,-1.10464 -0.2408,-1.32292 -0.3916,-1.29778 -0.505,-3.50591 -0.4893,-9.525 0.015,-5.728178 0.1058,-7.24623 0.6015,-10.054163 0.3211,-1.81901 0.6231,-3.545416 0.671,-3.836458 0.048,-0.291042 0.3345,-1.481667 0.6368,-2.645833 1.508,-5.808126 2.9806,-9.064207 5.7826,-12.786744 0.9122,-1.211876 1.6586,-2.313204 1.6586,-2.447396 0,-0.134191 0.119,-0.243985 0.2645,-0.243985 0.1456,0 0.2646,-0.178594 0.2646,-0.396875 0,-0.218281 0.1029,-0.396875 0.2286,-0.396875 0.1258,0 0.5719,-0.506016 0.9915,-1.124479 0.4195,-0.618464 0.8229,-1.184011 0.8964,-1.256771 0.074,-0.07276 0.9869,-1.144323 2.0299,-2.38125 1.7467,-2.07164 3.555,-3.826126 5.9078,-5.732111 0.5093,-0.412599 0.9657,-0.839478 1.0142,-0.948618 0.049,-0.109141 0.2271,-0.198988 0.3969,-0.199663 0.1698,-7.93e-4 0.6892,-0.357859 1.1542,-0.79375 0.4651,-0.435887 0.9128,-0.792525 0.9949,-0.792525 0.082,0 0.7423,-0.416718 1.4669,-0.926041 0.7246,-0.509323 1.3761,-0.926042 1.4478,-0.926042 0.072,0 0.8766,-0.446484 1.7887,-0.992187 1.5393,-0.920991 4.2829,-2.309966 6.1562,-3.116594 1.6943,-0.72957 4.2459,-1.716529 4.4979,-1.739802 0.1455,-0.01344 0.4807,-0.140078 0.7448,-0.281424 0.2641,-0.141343 0.7403,-0.305448 1.0583,-0.364672 0.318,-0.05922 0.9949,-0.275982 1.5042,-0.481682 1.1659,-0.470877 5.1725,-1.609461 6.696,-1.90287 0.2889,-0.05563 0.9071,-0.227164 1.3738,-0.381186 0.4667,-0.154021 1.0743,-0.325519 1.3503,-0.381107 0.276,-0.05559 0.8589,-0.249931 1.2955,-0.431873 0.4366,-0.181942 0.8829,-0.311639 0.9918,-0.288216 0.4064,0.08741 3.8205,-1.673324 5.1761,-2.669431 1.3381,-0.983229 3.115,-3.318152 3.1711,-4.166872 0.014,-0.218282 0.1667,-0.98874 0.3384,-1.712131 0.3511,-1.478654 0,-4.8751849 -0.732,-7.0191149 -0.5254,-1.54541 -1.9632,-4.528689 -2.4058,-4.99164903 -0.7808,-0.81683 0.1306,-1.28204 1.1995,-0.61222 0.3274,0.20518 0.5953,0.30884 0.5953,0.23036 0,-0.4309 3.7848,3.26067903 4.3853,4.27732903 0.2702,0.45737 0.5685,0.83159 0.6629,0.83159 0.094,0 0.3789,0.54302 0.6324,1.2067 0.2535,0.66369 0.5107,1.15685 0.5716,1.09593 0.2244,-0.22436 -0.7402,-5.36493 -1.1147,-5.940649 -0.213,-0.32742 -0.3168,-0.59531 -0.2308,-0.59531 0.086,0 -0.09,-0.34580003 -0.3908,-0.76845003 -0.3009,-0.42265 -0.5473,-0.86913 -0.5475,-0.99219 -2e-4,-0.12305 -0.2978,-0.56967997 -0.6614,-0.99248997 -0.3637,-0.42282 -0.6612,-0.85155 -0.6612,-0.95275 0,-0.36705 1.2149,-0.11362 2.249,0.46914 2.0092,1.13233997 3.3613,2.18366997 4.4763,3.48053 0.3029,0.35236 0.7591,0.858379 1.0138,1.124469 0.2546,0.2661 0.3827,0.48382 0.2846,0.48382 -0.098,0 0.06,0.26789 0.3519,0.59531 0.6271,0.70395 1.2003,2.50451 1.3266,4.16719 0.1447,1.9043205 0.3824,3.4973809 0.5038,3.3759509 0.062,-0.0617 0.1681,-0.83237 0.2366,-1.7126504 0.068,-0.88029 0.2383,-2.1206605 0.3775,-2.7563905 0.1392,-0.63573 0.3209,-1.78765 0.4037,-2.55983 0.083,-0.77218 0.2661,-1.61973 0.4072,-1.88344 0.1412,-0.26371 0.1815,-0.554659 0.09,-0.646559 -0.092,-0.0919 0.1963,-0.16708 0.6404,-0.16708 0.5683,0 0.9352,0.19501 1.239,0.658659 0.2373,0.36227 0.3999,0.70986 0.3611,0.77244 -0.039,0.0626 0.1767,0.39125 0.4786,0.7304 0.3019,0.33914 0.7043,1.15241 0.8942,1.80725 0.1898,0.65485 0.5342,1.72207 0.7653,2.37162 0.3004,0.8443905 0.4183,2.1263909 0.4137,4.4979209 -0.01,2.97468 -0.078,3.487542 -0.7004,4.970565 -0.3818,0.909506 -0.6131,1.650832 -0.5142,1.647392 0.099,-0.0034 0.5302,-0.47969 0.9583,-1.058333 0.4281,-0.578644 0.8746,-1.052079 0.9922,-1.052079 0.1176,0 0.2138,-0.126152 0.2138,-0.280338 0,-0.154185 0.4465,-0.814475 0.9922,-1.467311 0.5457,-0.652836 1.0004,-1.270825 1.0105,-1.373309 0.01,-0.102484 0.3309,-0.870943 0.713,-1.707687 0.5624,-1.23152 0.8148,-1.52135 1.3247,-1.52135 0.7965,0 1.620102,0.89396 2.045202,2.219846 0.6035,1.882715 -0.1861,6.104994 -1.824402,9.756534 -0.8016,1.786716 -3.297,4.677114 -4.3652,5.056219 -0.6874,0.243944 -0.4939,0.357749 0.8977,0.528003 0.6549,0.08012 1.5296,0.214297 1.9439,0.298185 1.4625,0.296127 5.209802,2.327334 6.453702,3.498181 0.6929,0.65214 2.2718,2.050145 3.5087,3.106679 3.7098,3.168806 5.9201,5.912525 7.3244,9.092134 0.3647,0.825828 1.0791,2.24605 1.5874,3.156048 l 0.9243,1.654542 0.6734,-0.529664 c 0.3703,-0.291314 1.6398,-0.841049 2.821,-1.221634 2.3378,-0.753261 6.2001,-0.998437 8.233,-0.522631 1.2462,0.291676 4.9411,1.98103 5.2215,2.38734 0.1069,0.154919 0.1962,0.193162 0.1984,0.08498 0.01,-0.431734 3.554,2.985762 4.7327,4.562313 0.3808,0.509323 0.7925,0.998885 0.9149,1.087914 0.1224,0.08903 0.2099,0.239107 0.1946,0.333502 -0.028,0.171604 0.1855,0.614109 1.3813,2.863017 0.3504,0.659172 0.7049,1.423352 0.7876,1.698178 0.083,0.274825 0.4038,1.154525 0.7134,1.954889 0.8588,2.219757 0.9323,2.92421 0.8579,8.217374 -0.079,5.646978 -0.018,5.839854 2.4665,7.710011 1.7306,1.30286 2.2948,2.5058 2.1547,4.59402 -0.1337,1.99258 -0.8729,3.70782 -2.1198,4.91877 -0.9485,0.92118 -1.6469,1.33596 -3.8047,2.25955 -0.6147,0.26312 -1.1207,0.57152 -1.1244,0.68534 0,0.11381 0.1717,0.63437 0.39,1.15679 0.5513,1.31931 0.5204,4.02834 -0.055,4.86125 -0.5855,0.84707 -0.9253,1.15877 -1.4062,1.28975 -0.2148,0.0585 -0.8986,0.24324 -1.5195,0.41049 -1.2368,0.33314 -1.8626,1.00932 -1.7867,1.93051 0.027,0.32742 -0.037,0.595312 -0.1426,0.595312 -0.1932,0 -0.5207,1.00337 -0.6485,1.98642 -0.038,0.29216 -0.2552,0.97677 -0.4827,1.52136 -0.2276,0.54457 -0.3572,0.99014 -0.2882,0.99014 0.069,0 -0.051,0.34115 -0.2664,0.75811 -0.2156,0.41695 -0.4463,1.04203 -0.5126,1.38906 -0.1469,0.76871 -1.7098,4.47121 -2.0812,4.93043 -0.1472,0.18191 -0.1854,0.33073 -0.085,0.33073 0.1004,0 -0.039,0.32743 -0.3095,0.72761 -0.2706,0.40018 -0.7252,1.19276 -1.0102,1.76129 -0.2849,0.56853 -1.2999,1.85686 -2.2556,2.86296 -1.4902,1.56892 -1.8976,1.85073 -2.8626,1.98017 -0.7802,0.10464 -1.249,0.34009 -1.5295,0.76808 -0.3999,0.61032 -2.0595,1.51262 -4.3374,2.35809 -4.1416,1.53725 -9.6136,3.39669 -10.9642,3.72575 -2.4856,0.60561 -2.4692,0.59437 -1.7181,1.1792 0.3629,0.28251 1.8504,1.24562 3.3056,2.14025 3.4298,2.10856 5.36,3.30715 7.2226,4.48505 0.8298,0.52473 3.1641,1.52328 5.1875,2.21899 3.657,1.25742 3.6935,1.2639 6.1498,1.09124 3.2949,-0.23161 6.4766,-0.85575 7.9874,-1.56684 0.6787,-0.31944 1.2935,-0.64539 1.3662,-0.72434 0.073,-0.079 0.6298,-0.43615 1.2377,-0.79375 3.3888,-1.99336 10.2977,-9.2645 12.7915,-13.46211 2.969,-4.99761 3.149,-9.27737 0.5159,-12.26873 -0.7738,-0.87904 -0.9509,-1.24003 -0.721,-1.46989 0.4143,-0.41428 1.3989,-0.38319 2.2625,0.0714 0.7632,0.40178 2.8616,2.49967 3.5934,3.59264 0.4228,0.63151 0.4349,0.52889 0.2665,-2.26692 l -0.1764,-2.92837 0.6983,-0.54929 c 0.3841,-0.30211 0.6983,-0.62394 0.6983,-0.71518 0,-0.0912 -0.805,-0.96707 -1.7889,-1.94629 -1.8631,-1.85426 -2.7143,-3.247052 -3.3517,-5.484582 -0.5783,-2.03004 -1.1471,-6.1882 -1.4656,-10.71563 -0.9688,-13.769165 -1.5095,-16.77724 -3.8523,-21.431245 -0.7853,-1.559972 -3.7431,-6.25186 -4.7459,-7.528292 -0.2233,-0.284261 -0.406,-0.671214 -0.406,-0.859896 0,-0.188685 -0.1389,-0.343062 -0.3087,-0.343062 -0.1698,0 -0.2344,-0.07427 -0.1436,-0.165052 0.091,-0.09078 -0.057,-0.600379 -0.3285,-1.132443 -0.2714,-0.532064 -0.6897,-1.6422 -0.9295,-2.466967 -0.3576,-1.230233 -0.3803,-1.685102 -0.1264,-2.53247 0.5176,-1.727822 2.7507,-2.682663 5.6002,-2.394622 3.4576,0.349517 5.9792,2.105374 8.8801,6.183543 1.6455,2.313426 4.86553,8.382666 5.75232,10.842386 0.59851,1.66011 0.81983,1.918785 1.04221,1.218124 0.24927,-0.785376 2.0871,-1.783086 4.24797,-2.306114 2.13232,-0.516117 7.84138,-0.619853 9.5191,-0.172966 0.58208,0.155048 2.47564,0.657439 4.20791,1.116428 3.833,1.0156 4.42163,1.299831 6.1269,2.958491 1.20221,1.16935 1.56628,1.35667 3.5642597,1.833872 2.46142,0.587894 4.05417,1.482307 5.71651,3.210126 1.33017,1.38257 1.88827002,3.283143 2.12652002,7.241759 0.43351,7.20294 -2.84190002,11.60492 -7.26105002,9.75848 -1.43063,-0.59775 -2.1068297,-1.34792 -2.5866897,-2.86964 -0.23433,-0.74308 -0.47776,-1.5133 -0.54094,-1.71159 -0.0955,-0.29957 -0.18613,-0.3014 -0.5362,-0.0109 -0.91998,0.76352 -0.89546,1.40756 0.17174,4.51103 1.32497,3.85309 1.9413897,7.38266 1.7734097,10.15441 -0.16775,2.768042 -0.9294197,4.548292 -2.5814397,6.033602 -1.70782,1.53548 -5.0673,3.20892 -7.55152,3.76161 -1.88898,0.42026 -2.20187,0.42398 -3.92843,0.0468 -1.42504,-0.31134 -1.94832,-0.33589 -2.17691,-0.10211 -0.16551,0.16927 -0.50307,1.54479 -0.75012,3.05671 -0.24706,1.51192 -0.57747,3.03047 -0.73424,3.37456 -0.15678,0.34408 -0.23532,0.67533 -0.17454,0.73611 0.0608,0.0608 1.71128,0.23887 3.66778,0.39576 5.20643,0.41749 5.38635,0.95318 0.5812,1.7305 -1.55007,0.25075 -3.29457,0.66381 -3.87665,0.91789 -2.53737,1.10761 -7.49074,5.84293 -12.6118,12.05664 -12.3423,14.9756 -16.5128,18.19901 -25.818,19.95501 -2.4465,0.46168 -10.0239,0.62894 -12.9056,0.28487 -1.366,-0.1631 -4.2452,-0.76077 -6.3981,-1.32817 -3.4652,-0.91323 -3.9597,-0.98646 -4.3088,-0.6381 -0.3355,0.33473 -0.3956,1.90474 -0.4023,10.50684 -0.01,9.98244 -0.018,10.16295 -0.7513,13.94976 -0.8091,4.17529 -0.8029,4.79524 0.092,9.26042 1.0254,5.11463 1.0355,5.6665 0.2518,13.75833 l -0.7304,7.54063 -1.5135,4.28765 c -1.1565,3.27608 -2.0283,5.17807 -3.6955,8.0618 l -2.1819,3.77414 2.0379,3.05071 c 3.5612,5.33108 5.6349,9.46282 6.9832,13.91386 1.3605,4.49103 2.8771,10.47483 3.349,13.21392 0.4606,2.67336 0.739,11.47376 0.3675,11.61587 -0.2669,0.10208 -0.5135,1.6506 -0.7973,5.006 -0.059,0.70183 -0.2338,1.83292 -0.3876,2.51354 -0.1538,0.68064 -0.3301,1.62343 -0.3918,2.09513 -0.1198,0.91715 -1.1223,4.79748 -1.3235,5.12299 -0.1182,0.1913 -0.2301,0.81484 -0.5531,3.08137 l -0.1602,1.12448 0.8943,0.0417 c 0.4919,0.023 1.0628,0.0329 1.2687,0.0222 0.2059,-0.0109 1.9323,0.14671 3.8365,0.34991 5.0783,0.542 4.9043,0.56457 5.9768,-0.77517 1.1529,-1.44005 1.9886,-1.81695 4.2045,-1.89614 1.2896,-0.0461 2.0074,0.0696 2.7396,0.44151 0.5457,0.27715 0.9922,0.43781 0.9922,0.35703 0,-0.0808 0.3572,0.25995 0.7937,0.75716 0.4366,0.49723 0.7938,1.03714 0.7938,1.19983 0,0.3942 0.2999,0.37306 0.9333,-0.0658 0.287,-0.19883 1.4324,-0.57491 2.5451,-0.83569 2.0128,-0.47169 2.0329,-0.47109 3.8744,0.12108 1.3153,0.42291 2.1705,0.90202 2.9542,1.65507 1.0155,0.97576 1.1908,1.04823 2.211,0.91364 0.6094,-0.0804 1.4866,-0.25985 1.9493,-0.39871 0.9458,-0.28384 5.3688,-0.23495 5.8537,0.0647 0.173,0.10691 0.5584,0.24135 0.8564,0.29874 0.8262,0.15912 3.6934,2.49441 3.6934,3.00826 0,0.12768 0.1741,0.37666 0.3869,0.55327 0.426,0.35356 1.4345,2.86017 1.6533,4.10932 0.503,2.87202 -0.5853,5.83597 -2.6006,7.08245 -0.6513,0.40282 -1.4762,0.79033 -1.8332,0.86111 -2.2724,0.45053 -4.0807,0.65164 -5.8746,0.65339 -1.1278,0 -2.0505,0.1126 -2.0505,0.24775 0,0.34393 -1.5616,1.91828 -2.5136,2.53416 -2.9814,1.92873 -8.8721,2.41755 -17.7271,1.47105 -8.1667,-0.87294 -10.3947,-0.69744 -17.1979,1.35456 -1.4552,0.43895 -3.0625,0.95158 -3.5718,1.13917 -0.5094,0.18761 -1.6405,0.54385 -2.5136,0.79168 -0.8731,0.24781 -2.1368,0.62418 -2.8082,0.83632 -0.921402,0.29118 -2.478302,0.3737 -6.350002,0.33655 l -5.1293,-0.0492 -1.8521,-0.86796 z m 1.373,-24.23695 c 1.9951,-1.7227 3.6061,-3.42603 4.4659,-4.72178 0.9639,-1.45267 2.4666,-4.45481 2.6146,-5.22351 0.06,-0.30964 0.2377,-0.80438 0.3956,-1.09942 0.1579,-0.29506 0.3288,-0.86834 0.3799,-1.27394 0.051,-0.40564 0.2362,-1.25746 0.4114,-1.89297 0.4061,-1.47309 0.5427,-6.20765 0.2513,-8.71253 -0.1235,-1.06177 -0.5349,-3.32396 -0.9142,-5.02708 -0.5828,-2.61679 -0.9761,-3.64039 -2.5381,-6.60629 -2.7892,-5.29572 -5.7862,-8.79336 -11.1255,-12.98366 -0.3887,-0.30509 -1.0075,-0.13652 -4.4969,1.225 -8.0187,3.12883 -13.8206,4.36361 -23.4269,4.98579 -1.4916,0.0966 -2.712,0.28065 -2.712,0.40897 0,0.12832 0.1887,0.67596 0.4194,1.21699 1.1276,2.64529 1.5577,5.29118 1.5577,9.58265 0,5.38523 -0.5553,7.75619 -3.2225,13.75834 -0.3557,0.80036 -0.8301,1.87192 -1.0543,2.38125 -0.2241,0.50932 -0.5723,1.24206 -0.7737,1.62832 -0.2014,0.38627 -0.3662,0.88442 -0.3662,1.10704 0,0.22262 -0.3096,1.15674 -0.6881,2.07584 -0.3785,0.91909 -0.8668,2.14734 -1.0851,2.72942 -0.2182,0.58208 -0.5627,1.44775 -0.7653,1.92371 -0.2027,0.47596 -0.4433,1.50122 -0.5346,2.27835 -0.1606,1.36631 -0.1428,1.41883 0.5382,1.58975 2.9243,0.73395 10.2045,0.67379 13.131,-0.10853 0.7672,-0.20508 2.7363,-1.44913 4.0936,-2.58625 0.1485,-0.12438 0.9819,-0.36468 1.8521,-0.53404 1.2679,-0.24677 1.8534,-0.23569 2.9477,0.0558 0.7511,0.2 1.525,0.46654 1.7198,0.59224 0.1949,0.12573 1.8426,0.23313 3.6616,0.23868 3.4701,0.0106 4.7589,0.32322 5.9517,1.44384 0.3713,0.34882 1.1011,0.55287 2.3849,0.66685 2.0908,0.18561 3.966,0.77764 4.7364,1.49535 0.2863,0.26672 0.6099,0.48493 0.7191,0.48493 0.1092,0 0.7714,-0.49459 1.4715,-1.09906 z m -42.5712,-123.14352 c 0.2488,-0.30244 0.5714,-0.73353 0.7169,-0.958 0.1456,-0.22446 0.7706,-1.07326 1.3891,-1.88622 0.6185,-0.81296 1.1245,-1.55123 1.1245,-1.6406 0,-0.0894 0.1488,-0.32844 0.3307,-0.53128 0.7668,-0.85504 0.9922,-1.17156 0.9922,-1.39332 0,-0.12911 0.2381,-0.45024 0.5292,-0.71363 0.291,-0.26339 0.5291,-0.5774 0.5291,-0.6978 0,-0.12041 0.4551,-0.96516 1.0114,-1.87723 0.8157,-1.33757 2.6884,-4.93774 3.1959,-6.14401 0.058,-0.1388 -0.4131,0.15886 -1.0477,0.66146 -0.6346,0.50261 -1.1734,0.8543 -1.1973,0.78154 -0.056,-0.16976 -2.8251,1.59966 -3.0827,1.96971 -0.1069,0.15359 -0.1962,0.18635 -0.1984,0.0728 0,-0.18164 -3.019,1.72185 -3.9121,2.46953 -0.1848,0.15476 -0.9457,0.59769 -1.6909,0.98428 -1.8202,0.94438 -2.1799,1.78021 -1.684,3.91343 0.199,0.85611 0.3079,1.64375 0.2421,1.7503 -0.066,0.10656 0.074,0.64546 0.3098,1.19757 0.2363,0.55211 0.4549,1.1229 0.4859,1.26842 0.031,0.14552 0.2147,0.73192 0.4084,1.30311 0.3318,0.97873 0.3735,1.0092 0.7238,0.52917 0.2045,-0.28015 0.5753,-0.75681 0.8241,-1.05923 z"
       id="path853" />
    <path
       id="path853-5"
       style="fill:#666666;fill-opacity:1;stroke:#666666;stroke-width:0.264583"
       d="m -117.80273,11.392578 c -1.57409,-0.198307 -2.87915,1.305502 -2.84766,2.808594 -0.78869,4.019551 -3.8226,7.284923 -7.42628,9.058566 -5.14563,2.698889 -11.01509,3.374672 -16.42442,5.364101 -9.06557,3.036716 -17.84241,7.667338 -24.39517,14.754838 -3.34265,3.661349 -6.26128,7.695814 -8.94519,11.856211 -2.87157,5.047084 -4.06163,10.838607 -4.78114,16.540917 -0.54223,5.127984 -0.53378,10.313757 -0.10479,15.448833 0.81785,6.517044 3.45181,12.763424 7.29564,18.068882 6.17679,8.40988 15.26515,14.31398 24.96173,17.90753 1.87794,0.73598 3.83973,1.24114 5.72392,1.94739 1.75698,0.90491 2.69706,3.29227 1.62179,5.05055 -1.06746,1.89994 -3.22189,2.73817 -4.75678,4.18585 -3.80223,3.20938 -7.21172,6.89706 -11.35064,9.69667 -2.45213,1.79505 -5.10385,3.40159 -7.1589,5.67044 -1.40567,1.82245 -1.3983,4.2235 -1.47568,6.39101 -0.0862,3.54641 0.57126,7.05827 0.67054,10.59356 -0.0705,2.03596 -1.16966,3.92151 -2.76946,5.14451 -3.58524,3.1703 -8.00924,5.58048 -10.75439,9.65339 -2.09413,2.89532 -3.60175,6.20832 -4.37382,9.69728 -0.60847,1.75956 -2.06714,3.04224 -3.64485,3.93432 -0.81778,0.59324 -1.75767,1.52775 -1.56445,2.60546 0.35753,0.95561 1.50145,0.87564 2.32617,0.76172 0.38202,0.13003 1.11993,-0.26902 0.95793,0.38021 0.23273,5.58915 -0.13132,11.37999 1.92379,16.69992 1.58551,4.36897 4.04531,8.45124 7.2882,11.79097 3.68718,3.7261 8.30514,6.39011 13.13755,8.34095 2.11214,1.02366 3.60176,3.00504 4.35464,5.19225 2.892,6.84094 2.30386,14.7071 -0.52304,21.4808 -2.35004,5.78291 -6.5649,10.61616 -11.4221,14.45423 -0.64591,0.2584 -0.53561,0.78905 -0.40276,1.34632 0.24926,2.59479 -1.38158,4.87673 -3.13132,6.61671 -3.28368,3.68403 -7.19211,6.95259 -9.46805,11.41444 -0.58863,1.55097 0.40731,3.33037 1.90337,3.90655 3.10793,1.92838 6.91366,1.70203 10.42229,1.67153 9.88144,-0.19904 19.72587,-1.75715 29.60838,-0.74894 5.2677,0.41707 10.71453,1.4024 15.88928,-0.17853 2.06894,-0.61449 4.14748,-1.65873 5.30543,-3.56381 0.75498,-1.10187 1.85016,-2.21532 3.29937,-2.10541 2.24684,0.0265 4.31181,2.18163 3.96567,4.46231 0.0229,1.86787 1.17879,3.69357 2.93827,4.38172 2.34339,1.33032 5.12979,0.85796 7.70067,0.94743 3.04057,-0.0183 6.066434,-0.62308 8.885859,-1.75644 5.125129,-1.61638 10.35464,-3.3367 15.783334,-3.16599 6.695809,0.1447 13.458738,1.7355 20.11633,0.30993 1.807767,-0.33397 3.039264,-1.82019 4.231501,-3.08286 1.699407,-1.24799 3.885402,-0.97364 5.849621,-1.12136 1.551164,-0.0948 3.365232,-0.1925 4.481486,-1.40925 1.118192,-1.58984 0.484975,-3.71108 -0.388632,-5.25882 -0.990786,-1.7379 -2.963874,-2.87362 -4.979263,-2.69277 -2.534238,0.0416 -5.158638,1.27796 -7.620917,0.15615 -1.551528,-0.8026 -2.774145,-2.5308 -4.693402,-2.41223 -2.014483,0.0439 -3.733579,1.85727 -5.796302,1.24868 -1.266554,-0.30294 -2.088768,-1.3969 -2.824356,-2.37518 -1.199715,-1.06694 -3.159921,-0.36458 -3.870957,0.93963 -1.526656,1.60997 -3.945839,1.68783 -5.999796,1.38871 -4.112628,-0.37386 -8.231414,-0.69356 -12.361532,-0.76957 0.72706,-4.7516 1.604521,-9.44473 2.826172,-14.10156 0.591749,-3.71055 1.19618,-7.42846 1.543545,-11.1694 0.238153,-7.30553 -1.669055,-14.45613 -3.858435,-21.36004 -1.206364,-3.77543 -2.975167,-7.34898 -5.138415,-10.66336 -1.460663,-2.30996 -3.017621,-4.55663 -4.525211,-6.8365 3.176854,-5.51769 6.651452,-11.06054 8.017917,-17.36563 0.646853,-3.51132 0.697925,-7.10134 1.142798,-10.64052 0.3152,-3.74407 -0.153021,-7.50589 -0.977848,-11.15687 -0.465752,-3.05567 -0.297877,-6.14068 0.465571,-9.07135 1.169538,-7.66544 0.01372,-15.47393 0.914549,-23.13413 0.08026,-1.16377 0.649338,-2.26306 1.645934,-2.89847 1.465242,-1.06139 3.456208,-1.1649 5.099041,-0.47822 4.379896,1.02912 8.82635,2.2311 13.368992,1.87605 5.234716,0.0238 10.757167,-0.6301 15.193413,-3.63762 4.937506,-3.2501 8.580899,-7.99519 12.448414,-12.37495 4.364148,-5.13253 8.661138,-10.4121 13.98786,-14.59485 -0.117904,-2.79915 1.070413,-5.42276 1.372642,-8.22231 0.421866,-2.0142 2.068603,-4.03321 4.289857,-3.94033 2.063026,0.005 4.220241,0.76072 6.207411,-0.13106 1.622904,-0.61663 3.205508,-1.42552 4.575716,-2.48883 1.681209,-1.68747 1.569664,-4.281594 1.261601,-6.464407 -0.415094,-3.755812 -2.454821,-7.202927 -2.380448,-11.027516 0.34862,-2.591223 3.022505,-4.960009 5.697595,-4.236712 1.4288345,0.362932 2.2583028,1.688883 3.1337913,2.745512 1.1697144,1.000361 3.1264553,-0.332723 2.7257276,-1.789308 -0.1493761,-2.328496 0.1042786,-4.871135 -1.1546792,-6.949434 -1.4197294,-1.935164 -3.9740489,-2.167891 -6.0631977,-2.921384 -2.168676,-0.774108 -3.473522,-2.977604 -5.715916,-3.620411 -1.821311,-0.625559 -3.720594,-0.998684 -5.590816,-1.442154 -2.973797,-0.540783 -6.102734,-0.553675 -9.01944,0.293034 -1.457401,0.467019 -2.17316,2.118469 -3.724743,2.374422 -1.934567,0.483201 -3.847135,-0.873596 -4.564077,-2.627417 -1.89228,-4.417159 -3.956472,-8.835146 -6.935789,-12.639583 -0.930631,-0.976101 -1.858856,-2.306259 -3.312891,-2.427734 -1.225623,-0.04728 -2.2813,1.271376 -1.815707,2.44959 0.448956,1.904907 1.911878,3.323155 2.840316,4.994645 2.555648,3.833696 4.43353,8.161172 5.102504,12.73977 1.33719,7.723323 0.936949,15.668591 2.679365,23.331025 0.254109,1.465063 0.931303,2.822586 1.964178,3.894548 1.287617,1.474504 3.123627,2.802954 3.344969,4.891204 0.06071,1.18562 -0.523588,2.30406 -1.304688,3.16016 0.152523,2.14126 0.538483,4.64467 -0.984374,6.41406 -0.674638,0.72875 -1.689989,0.93056 -2.578126,1.28125 -0.660923,5.0065 -3.555228,9.3608 -6.828266,13.06749 -3.129057,3.63128 -6.501762,7.15951 -10.576046,9.73752 -1.969074,1.19331 -4.037299,2.06446 -6.330221,2.58492 -2.153859,0.42537 -4.292642,0.68006 -6.431482,0.69015 -2.613698,0.0508 -5.165137,-0.6377 -7.565336,-1.6235 -4.800399,-1.88766 -9.046606,-4.7369 -13.389742,-7.55424 -1.56788,-1.00529 -3.457603,-1.99309 -4.113765,-3.85777 -0.605931,-2.24265 1.140128,-4.69473 3.408122,-5.02642 4.601955,-1.31581 9.201311,-2.72271 13.557205,-4.72518 1.116767,-0.49508 2.04873,-1.29926 3.074478,-1.93299 1.053099,-0.45738 2.249551,-0.77336 2.93743,-1.77474 2.598557,-2.96136 3.846182,-6.78453 5.182195,-10.41844 0.884917,-2.61195 1.432069,-5.371893 2.696433,-7.834798 1.037683,-1.372091 2.684669,-2.059087 4.228605,-2.695286 -0.441849,-1.708667 -1.385133,-3.620857 -0.486333,-5.342009 1.079864,-1.961053 3.41835,-2.498045 5.195317,-3.593538 1.247117,-0.887045 1.90757,-2.892612 0.736294,-4.104203 -1.080865,-1.158773 -2.553044,-2.024845 -3.118591,-3.586719 -1.392562,-3.221169 -0.574706,-6.795 -0.796761,-10.181071 -0.09328,-2.439066 -0.69972,-4.856338 -1.85913,-7.009309 -1.828733,-4.044186 -4.940827,-7.831185 -9.28705,-9.234057 -3.576924,-1.181086 -7.623391,-0.342349 -10.65316,1.824255 -1.887736,0.955047 -4.220889,-0.461679 -4.885203,-2.324789 -1.977555,-4.07102 -3.934675,-8.388475 -7.53093,-11.311841 -2.644425,-2.366127 -5.222503,-4.984667 -8.523435,-6.425781 -1.59945,-0.629497 -3.38243,-0.599698 -4.9668,-1.244141 -1.87826,-1.015853 -2.80536,-3.832251 -1.29297,-5.535156 0.74213,-1.032667 0.60772,-2.646806 -0.54261,-3.331104 -1.20816,-0.793387 -1.98281,-2.176244 -1.91442,-3.63374 -0.005,-1.294122 0.55414,-2.484299 1.07227,-3.638672 -1.92124,0.250637 -4.23559,0.09902 -5.50569,-1.575774 -0.56613,-0.79609 -0.81327,-2.028841 -2.0822,-2.051179 z m -105.51172,94.335942 c -2.20299,0.16096 -3.9475,1.71214 -5.63559,2.97817 -3.63794,2.97117 -6.52637,7.02989 -7.59488,11.64292 -0.17509,1.89274 2.41053,3.12916 3.8164,1.89648 2.16588,-1.29536 2.69015,-3.94606 4.00399,-5.92206 1.56758,-2.69349 3.72938,-5.01341 6.17765,-6.91583 0.57645,-0.8296 1.40938,-1.92674 0.70313,-2.93164 -0.30658,-0.49165 -0.8979,-0.77233 -1.4707,-0.74804 z m 30.80468,3.42187 c 0.60938,2.1354 1.18917,4.29556 2.22375,6.27344 0.76453,1.95307 1.66312,3.85822 2.63878,5.70708 0.64033,2.20317 0.0726,4.56632 -0.4528,6.79651 -1.69758,5.74258 -5.78624,10.29871 -9.60149,14.74807 -1.99654,2.34322 -4.09673,4.62703 -5.81678,7.18188 -0.63033,1.45552 -0.86203,3.0411 -1.34302,4.54693 2.11434,-0.89367 4.56978,-1.50968 5.99183,-3.46288 4.27981,-4.45725 9.16388,-8.4528 12.48083,-13.73439 3.12335,-5.49664 4.01889,-12.08491 3.12043,-18.29294 -0.79235,-4.05876 -3.46024,-7.72509 -7.1586,-9.61027 -0.82028,-0.47637 -1.64034,-0.95313 -2.45988,-1.43077 0.12565,0.42578 0.2513,0.85156 0.37695,1.27734 z m 49.80079,31.5918 c 1.84457,0.36185 2.78051,2.56239 2.20041,4.25373 -0.50024,2.78025 -2.32034,5.01528 -3.5101,7.50971 -2.56914,4.33207 -5.46284,8.49928 -8.81727,12.25804 -1.67885,1.36158 -4.25535,0.6008 -5.41406,-1.07617 -0.89067,-1.14089 -0.94665,-2.63904 -1.4635,-3.94545 -0.83895,-2.7246 -1.56658,-5.79072 -0.40755,-8.52958 1.24586,-2.35761 3.9285,-3.26122 5.99646,-4.71452 3.12879,-1.96242 6.16502,-4.14694 9.56393,-5.6198 0.6055,-0.13973 1.23234,-0.17356 1.85168,-0.13596 z m -68.92383,31.60742 c -1.12552,-0.0588 -1.67588,1.07371 -1.91211,2 -0.30698,0.83923 -0.0942,1.78849 -0.11721,2.67209 0.14083,3.68656 1.18205,7.32003 3.02698,10.51601 2.47132,4.45388 6.31603,8.35495 11.17617,10.09901 1.51127,0.46426 3.12459,0.90138 4.70598,0.69236 1.28076,-0.4186 1.38382,-2.18803 0.60854,-3.11561 -0.62496,-1.09902 -2.03762,-1.12948 -3.00946,-1.77269 -4.15973,-2.01551 -7.61102,-5.42313 -9.66835,-9.56383 -1.4552,-2.78817 -2.28184,-5.79851 -2.63286,-8.91796 -0.23687,-1.09612 -0.85584,-2.59653 -2.17768,-2.60938 z m 94.22656,59.88086 c 2.62713,0.45472 4.35536,2.66135 6.28476,4.27461 6.39531,5.99216 10.88899,14.1948 11.873443,22.8914 0.637707,5.2308 0.324353,10.48966 -1.494063,15.48623 -1.70632,4.71667 -4.80124,8.93546 -8.7847,11.98125 -1.25172,0.96098 -2.89856,1.85211 -4.50296,1.24008 -0.81734,-0.18963 -1.4675,-0.76195 -2.13625,-1.2056 -2.28119,-0.67267 -4.84121,-0.56805 -6.85718,-1.98728 -2.12957,-1.02835 -4.56783,-0.38261 -6.82174,-0.80522 -1.16105,-0.0972 -2.24507,-0.55914 -3.3739,-0.77383 -1.57038,-0.16323 -2.83606,0.93502 -4.01248,1.79736 -3.33472,2.04581 -7.40413,1.94258 -11.17841,1.9424 -2.69,-0.0394 -5.53048,-0.0429 -7.99457,-1.25742 -1.85376,-1.17259 -2.24506,-3.66465 -1.69145,-5.6478 1.14409,-4.17492 2.91037,-8.14313 4.4375,-12.18501 1.93286,-4.27492 4.00204,-8.73016 3.88562,-13.53119 0.14911,-3.6051 -0.30402,-7.27939 -1.73554,-10.61286 -0.55278,-1.78816 0.32307,-3.92638 2.10103,-4.63129 2.01501,-0.8759 4.27658,-0.52556 6.40101,-0.86288 6.37052,-0.5308 12.71887,-1.75262 18.67434,-4.12363 2.25314,-0.82203 4.50069,-1.83617 6.92554,-1.98932 z" />
  </g>
</svg>
